<svg width="318" height="60" viewBox="0 0 318 60" fill="none" xmlns="http://www.w3.org/2000/svg">
<path d="M65.598 22H67.7926V15.6577H73.9716V13.7756H67.7926V9.34375H74.6179V7.45455H65.598V22ZM80.282 22.2415C82.0859 22.2415 83.1016 21.3253 83.5064 20.5085H83.5916V22H85.6655V14.7557C85.6655 11.581 83.1655 10.9489 81.4325 10.9489C79.4581 10.9489 77.6399 11.7443 76.9297 13.733L78.9254 14.1875C79.2379 13.4134 80.0334 12.6676 81.4609 12.6676C82.8317 12.6676 83.5348 13.3849 83.5348 14.6207V14.6705C83.5348 15.4446 82.7393 15.4304 80.7791 15.6577C78.7124 15.8991 76.5959 16.4389 76.5959 18.9176C76.5959 21.0625 78.2081 22.2415 80.282 22.2415ZM80.7436 20.5369C79.5433 20.5369 78.6768 19.9972 78.6768 18.946C78.6768 17.8097 79.6854 17.4048 80.9141 17.2415C81.603 17.1491 83.2365 16.9645 83.5419 16.6591V18.0653C83.5419 19.358 82.5121 20.5369 80.7436 20.5369ZM93.6644 22.1918C95.9158 21.9787 97.3576 20.5085 97.5707 18.5483H95.5039C95.234 19.7273 94.3178 20.4233 93.1033 20.4233C91.3065 20.4233 90.1488 18.9247 90.1488 16.5455C90.1488 14.2088 91.3278 12.7386 93.1033 12.7386C94.4528 12.7386 95.2766 13.5909 95.5039 14.6136H97.5707C97.3434 12.4119 95.5465 10.9489 93.0678 10.9489C89.9925 10.9489 88.0039 13.2642 88.0039 16.5952C88.0039 19.5923 89.5948 21.8011 92.2795 22.1634L92.0309 23.3494C93.0749 23.4489 93.5295 23.6548 93.5224 24.2869C93.5153 24.919 92.8406 25.1889 91.8604 25.1889L91.9031 26.375C94.0053 26.375 95.1488 25.5085 95.1417 24.223C95.1417 23.1506 94.4173 22.6534 93.6005 22.5256L93.6644 22.1918ZM103.016 22.2415C104.82 22.2415 105.836 21.3253 106.241 20.5085H106.326V22H108.4V14.7557C108.4 11.581 105.9 10.9489 104.167 10.9489C102.192 10.9489 100.374 11.7443 99.6641 13.733L101.66 14.1875C101.972 13.4134 102.768 12.6676 104.195 12.6676C105.566 12.6676 106.269 13.3849 106.269 14.6207V14.6705C106.269 15.4446 105.474 15.4304 103.513 15.6577C101.447 15.8991 99.3303 16.4389 99.3303 18.9176C99.3303 21.0625 100.942 22.2415 103.016 22.2415ZM103.478 20.5369C102.278 20.5369 101.411 19.9972 101.411 18.946C101.411 17.8097 102.42 17.4048 103.648 17.2415C104.337 17.1491 105.971 16.9645 106.276 16.6591V18.0653C106.276 19.358 105.246 20.5369 103.478 20.5369ZM118.645 7.45455H116.521V22H118.645V7.45455ZM126.097 22.2202C129.172 22.2202 131.182 19.9688 131.182 16.5952C131.182 13.2003 129.172 10.9489 126.097 10.9489C123.022 10.9489 121.012 13.2003 121.012 16.5952C121.012 19.9688 123.022 22.2202 126.097 22.2202ZM126.104 20.4375C124.094 20.4375 123.157 18.6832 123.157 16.5881C123.157 14.5 124.094 12.7244 126.104 12.7244C128.1 12.7244 129.037 14.5 129.037 16.5881C129.037 18.6832 128.1 20.4375 126.104 20.4375ZM138.126 26.3182C140.903 26.3182 143.048 25.0469 143.048 22.2415V11.0909H140.967V12.8594H140.811C140.435 12.1847 139.682 10.9489 137.651 10.9489C135.016 10.9489 133.077 13.0298 133.077 16.5028C133.077 19.983 135.058 21.8366 137.636 21.8366C139.639 21.8366 140.413 20.7074 140.797 20.0114H140.932V22.1562C140.932 23.8679 139.76 24.6065 138.148 24.6065C136.379 24.6065 135.69 23.7188 135.314 23.0938L133.489 23.8466C134.064 25.1818 135.52 26.3182 138.126 26.3182ZM138.105 20.0753C136.209 20.0753 135.222 18.6193 135.222 16.4744C135.222 14.3793 136.188 12.7528 138.105 12.7528C139.959 12.7528 140.953 14.2656 140.953 16.4744C140.953 18.7259 139.938 20.0753 138.105 20.0753ZM145.896 22H148.02V11.0909H145.896V22ZM146.969 9.40767C147.7 9.40767 148.311 8.83949 148.311 8.14347C148.311 7.44744 147.7 6.87216 146.969 6.87216C146.23 6.87216 145.626 7.44744 145.626 8.14347C145.626 8.83949 146.23 9.40767 146.969 9.40767ZM153 15.5227C153 13.7827 154.066 12.7884 155.543 12.7884C156.985 12.7884 157.858 13.733 157.858 15.3168V22H159.982V15.0611C159.982 12.3622 158.498 10.9489 156.267 10.9489C154.627 10.9489 153.554 11.7088 153.05 12.8665H152.915V11.0909H150.877V22H153V15.5227ZM172.718 22.2202C175.296 22.2202 176.965 20.6719 177.2 18.5483H175.133C174.863 19.7273 173.947 20.4233 172.732 20.4233C170.935 20.4233 169.778 18.9247 169.778 16.5455C169.778 14.2088 170.957 12.7386 172.732 12.7386C174.082 12.7386 174.906 13.5909 175.133 14.6136H177.2C176.972 12.4119 175.175 10.9489 172.697 10.9489C169.621 10.9489 167.633 13.2642 167.633 16.5952C167.633 19.8835 169.55 22.2202 172.718 22.2202ZM184.066 22.2202C187.141 22.2202 189.151 19.9688 189.151 16.5952C189.151 13.2003 187.141 10.9489 184.066 10.9489C180.99 10.9489 178.98 13.2003 178.98 16.5952C178.98 19.9688 180.99 22.2202 184.066 22.2202ZM184.073 20.4375C182.063 20.4375 181.125 18.6832 181.125 16.5881C181.125 14.5 182.063 12.7244 184.073 12.7244C186.069 12.7244 187.006 14.5 187.006 16.5881C187.006 18.6832 186.069 20.4375 184.073 20.4375ZM191.521 22H193.645V15.2741C193.645 13.804 194.675 12.7812 195.882 12.7812C197.061 12.7812 197.878 13.5625 197.878 14.7486V22H199.994V15.0469C199.994 13.733 200.797 12.7812 202.182 12.7812C203.304 12.7812 204.227 13.4062 204.227 14.8835V22H206.351V14.6847C206.351 12.1918 204.959 10.9489 202.984 10.9489C201.415 10.9489 200.236 11.7017 199.71 12.8665H199.597C199.121 11.6733 198.119 10.9489 196.663 10.9489C195.222 10.9489 194.149 11.6662 193.695 12.8665H193.56V11.0909H191.521V22ZM222.665 13.7543C222.224 12.0568 220.896 10.9489 218.538 10.9489C216.074 10.9489 214.327 12.2486 214.327 14.1804C214.327 15.7287 215.264 16.7585 217.31 17.2131L219.156 17.6179C220.207 17.8523 220.697 18.321 220.697 19.0028C220.697 19.848 219.795 20.5085 218.403 20.5085C217.132 20.5085 216.315 19.9616 216.06 18.8892L214.007 19.2017C214.362 21.1335 215.967 22.2202 218.418 22.2202C221.053 22.2202 222.878 20.821 222.878 18.8466C222.878 17.3054 221.898 16.3537 219.895 15.892L218.162 15.4943C216.962 15.2102 216.443 14.8054 216.45 14.0668C216.443 13.2287 217.352 12.6321 218.56 12.6321C219.881 12.6321 220.491 13.3636 220.74 14.0952L222.665 13.7543ZM229.914 22.2202C232.294 22.2202 233.977 21.0483 234.46 19.2727L232.45 18.9105C232.066 19.9403 231.143 20.4659 229.936 20.4659C228.118 20.4659 226.896 19.2869 226.839 17.1847H234.595V16.4318C234.595 12.4901 232.237 10.9489 229.765 10.9489C226.725 10.9489 224.723 13.2642 224.723 16.6165C224.723 20.0043 226.697 22.2202 229.914 22.2202ZM226.846 15.5938C226.931 14.0455 228.054 12.7031 229.779 12.7031C231.427 12.7031 232.507 13.9247 232.514 15.5938H226.846ZM243.862 17.4759C243.869 19.3295 242.491 20.2102 241.298 20.2102C239.984 20.2102 239.075 19.2585 239.075 17.7741V11.0909H236.951V18.0298C236.951 20.7358 238.435 22.142 240.531 22.142C242.171 22.142 243.286 21.2756 243.79 20.1108H243.904V22H245.992V11.0909H243.862V17.4759ZM264.153 12.0497H266.404C265.914 9.21591 263.492 7.25568 260.353 7.25568C256.589 7.25568 253.84 10.0895 253.84 14.7344C253.84 19.3366 256.511 22.1989 260.452 22.1989C263.982 22.1989 266.504 19.8835 266.504 16.2116V14.5568H260.786V16.3679H264.38C264.33 18.7116 262.782 20.196 260.452 20.196C257.888 20.196 256.021 18.2571 256.021 14.7202C256.021 11.1974 257.903 9.25852 260.367 9.25852C262.299 9.25852 263.606 10.3239 264.153 12.0497ZM269.803 22H271.926V11.0909H269.803V22ZM270.875 9.40767C271.607 9.40767 272.217 8.83949 272.217 8.14347C272.217 7.44744 271.607 6.87216 270.875 6.87216C270.136 6.87216 269.533 7.44744 269.533 8.14347C269.533 8.83949 270.136 9.40767 270.875 9.40767ZM279.875 11.0909H277.638V8.47727H275.515V11.0909H273.917V12.7955H275.515V19.2372C275.507 21.2188 277.02 22.1776 278.696 22.142C279.371 22.1349 279.826 22.0071 280.074 21.9148L279.691 20.1605C279.549 20.1889 279.286 20.2528 278.945 20.2528C278.256 20.2528 277.638 20.0256 277.638 18.7969V12.7955H279.875V11.0909ZM284.582 15.5227C284.582 13.7827 285.683 12.7884 287.196 12.7884C288.659 12.7884 289.533 13.7188 289.533 15.3168V22H291.656V15.0611C291.656 12.3409 290.165 10.9489 287.92 10.9489C286.223 10.9489 285.2 11.6875 284.689 12.8665H284.554V7.45455H282.459V22H284.582V15.5227ZM301.401 17.4759C301.408 19.3295 300.03 20.2102 298.837 20.2102C297.523 20.2102 296.614 19.2585 296.614 17.7741V11.0909H294.49V18.0298C294.49 20.7358 295.974 22.142 298.07 22.142C299.71 22.142 300.825 21.2756 301.33 20.1108H301.443V22H303.531V11.0909H301.401V17.4759ZM306.555 22H308.629V20.3026H308.806C309.19 20.9986 309.971 22.2131 311.96 22.2131C314.602 22.2131 316.52 20.0966 316.52 16.5668C316.52 13.0298 314.574 10.9489 311.939 10.9489C309.914 10.9489 309.183 12.1847 308.806 12.8594H308.679V7.45455H306.555V22ZM308.636 16.5455C308.636 14.2656 309.63 12.7528 311.484 12.7528C313.409 12.7528 314.375 14.3793 314.375 16.5455C314.375 18.733 313.38 20.402 311.484 20.402C309.659 20.402 308.636 18.8395 308.636 16.5455ZM65.4276 56.0909H67.5511V50.3026H67.679C68.0625 50.9986 68.8438 52.2131 70.8324 52.2131C73.4744 52.2131 75.392 50.0966 75.392 46.5668C75.392 43.0298 73.446 40.9489 70.8111 40.9489C68.7869 40.9489 68.0554 42.1847 67.679 42.8594H67.5014V41.0909H65.4276V56.0909ZM67.5085 46.5455C67.5085 44.2656 68.5028 42.7528 70.3565 42.7528C72.2812 42.7528 73.2472 44.3793 73.2472 46.5455C73.2472 48.733 72.2528 50.402 70.3565 50.402C68.5312 50.402 67.5085 48.8395 67.5085 46.5455ZM80.946 52.2415C82.75 52.2415 83.7656 51.3253 84.1705 50.5085H84.2557V52H86.3295V44.7557C86.3295 41.581 83.8295 40.9489 82.0966 40.9489C80.1222 40.9489 78.304 41.7443 77.5938 43.733L79.5895 44.1875C79.902 43.4134 80.6974 42.6676 82.125 42.6676C83.4957 42.6676 84.1989 43.3849 84.1989 44.6207V44.6705C84.1989 45.4446 83.4034 45.4304 81.4432 45.6577C79.3764 45.8991 77.2599 46.4389 77.2599 48.9176C77.2599 51.0625 78.8722 52.2415 80.946 52.2415ZM81.4077 50.5369C80.2074 50.5369 79.3409 49.9972 79.3409 48.946C79.3409 47.8097 80.3494 47.4048 81.5781 47.2415C82.267 47.1491 83.9006 46.9645 84.206 46.6591V48.0653C84.206 49.358 83.1761 50.5369 81.4077 50.5369ZM89.158 52H91.2816V45.3381C91.2816 43.9105 92.3825 42.8807 93.8881 42.8807C94.3285 42.8807 94.8256 42.9588 94.9961 43.0085V40.9773C94.783 40.9489 94.364 40.9276 94.0941 40.9276C92.8157 40.9276 91.7219 41.652 91.3242 42.8239H91.2106V41.0909H89.158V52ZM99.9109 52.2415C101.715 52.2415 102.73 51.3253 103.135 50.5085H103.221V52H105.294V44.7557C105.294 41.581 102.794 40.9489 101.061 40.9489C99.087 40.9489 97.2688 41.7443 96.5586 43.733L98.5543 44.1875C98.8668 43.4134 99.6623 42.6676 101.09 42.6676C102.461 42.6676 103.164 43.3849 103.164 44.6207V44.6705C103.164 45.4446 102.368 45.4304 100.408 45.6577C98.3413 45.8991 96.2248 46.4389 96.2248 48.9176C96.2248 51.0625 97.837 52.2415 99.9109 52.2415ZM100.373 50.5369C99.1722 50.5369 98.3058 49.9972 98.3058 48.946C98.3058 47.8097 99.3143 47.4048 100.543 47.2415C101.232 47.1491 102.865 46.9645 103.171 46.6591V48.0653C103.171 49.358 102.141 50.5369 100.373 50.5369ZM118.011 52.2202C120.589 52.2202 122.258 50.6719 122.493 48.5483H120.426C120.156 49.7273 119.24 50.4233 118.025 50.4233C116.228 50.4233 115.071 48.9247 115.071 46.5455C115.071 44.2088 116.25 42.7386 118.025 42.7386C119.375 42.7386 120.199 43.5909 120.426 44.6136H122.493C122.265 42.4119 120.468 40.9489 117.99 40.9489C114.914 40.9489 112.926 43.2642 112.926 46.5952C112.926 49.8835 114.843 52.2202 118.011 52.2202ZM129.359 52.2202C132.434 52.2202 134.444 49.9688 134.444 46.5952C134.444 43.2003 132.434 40.9489 129.359 40.9489C126.283 40.9489 124.273 43.2003 124.273 46.5952C124.273 49.9688 126.283 52.2202 129.359 52.2202ZM129.366 50.4375C127.356 50.4375 126.418 48.6832 126.418 46.5881C126.418 44.5 127.356 42.7244 129.366 42.7244C131.362 42.7244 132.299 44.5 132.299 46.5881C132.299 48.6832 131.362 50.4375 129.366 50.4375ZM136.814 52H138.938V45.2741C138.938 43.804 139.968 42.7812 141.175 42.7812C142.354 42.7812 143.171 43.5625 143.171 44.7486V52H145.287V45.0469C145.287 43.733 146.09 42.7812 147.475 42.7812C148.597 42.7812 149.52 43.4062 149.52 44.8835V52H151.644V44.6847C151.644 42.1918 150.252 40.9489 148.277 40.9489C146.708 40.9489 145.529 41.7017 145.003 42.8665H144.89C144.414 41.6733 143.412 40.9489 141.956 40.9489C140.515 40.9489 139.442 41.6662 138.988 42.8665H138.853V41.0909H136.814V52ZM159.192 52.2202C161.571 52.2202 163.254 51.0483 163.737 49.2727L161.727 48.9105C161.344 49.9403 160.42 50.4659 159.213 50.4659C157.395 50.4659 156.173 49.2869 156.116 47.1847H163.872V46.4318C163.872 42.4901 161.514 40.9489 159.043 40.9489C156.003 40.9489 154 43.2642 154 46.6165C154 50.0043 155.974 52.2202 159.192 52.2202ZM156.124 45.5938C156.209 44.0455 157.331 42.7031 159.057 42.7031C160.705 42.7031 161.784 43.9247 161.791 45.5938H156.124ZM171.399 52.1918C173.65 51.9787 175.092 50.5085 175.305 48.5483H173.238C172.968 49.7273 172.052 50.4233 170.838 50.4233C169.041 50.4233 167.883 48.9247 167.883 46.5455C167.883 44.2088 169.062 42.7386 170.838 42.7386C172.187 42.7386 173.011 43.5909 173.238 44.6136H175.305C175.078 42.4119 173.281 40.9489 170.802 40.9489C167.727 40.9489 165.738 43.2642 165.738 46.5952C165.738 49.5923 167.329 51.8011 170.014 52.1634L169.765 53.3494C170.809 53.4489 171.264 53.6548 171.257 54.2869C171.25 54.919 170.575 55.1889 169.595 55.1889L169.637 56.375C171.74 56.375 172.883 55.5085 172.876 54.223C172.876 53.1506 172.152 52.6534 171.335 52.5256L171.399 52.1918ZM180.751 52.2415C182.555 52.2415 183.57 51.3253 183.975 50.5085H184.06V52H186.134V44.7557C186.134 41.581 183.634 40.9489 181.901 40.9489C179.927 40.9489 178.109 41.7443 177.398 43.733L179.394 44.1875C179.707 43.4134 180.502 42.6676 181.93 42.6676C183.3 42.6676 184.004 43.3849 184.004 44.6207V44.6705C184.004 45.4446 183.208 45.4304 181.248 45.6577C179.181 45.8991 177.065 46.4389 177.065 48.9176C177.065 51.0625 178.677 52.2415 180.751 52.2415ZM181.212 50.5369C180.012 50.5369 179.146 49.9972 179.146 48.946C179.146 47.8097 180.154 47.4048 181.383 47.2415C182.072 47.1491 183.705 46.9645 184.011 46.6591V48.0653C184.011 49.358 182.981 50.5369 181.212 50.5369ZM188.963 52H191.086V45.3381C191.086 43.9105 192.187 42.8807 193.693 42.8807C194.133 42.8807 194.63 42.9588 194.801 43.0085V40.9773C194.588 40.9489 194.169 40.9276 193.899 40.9276C192.62 40.9276 191.527 41.652 191.129 42.8239H191.015V41.0909H188.963V52Z" fill="#B3B9FF"/>
<g clip-path="url(#clip0)">
<path d="M20 10.8334C31.05 10.8334 40 19.6334 40 30.4867C40 39.1717 34.27 46.5367 26.325 49.1334C25.325 49.3184 24.9583 48.71 24.9583 48.1884C24.9583 47.7217 24.975 46.485 24.9833 44.8467C30.5467 46.0317 31.72 42.21 31.72 42.21C32.63 39.9417 33.945 39.335 33.945 39.335C35.7567 38.1167 33.805 38.1417 33.805 38.1417C31.7967 38.2784 30.7417 40.1667 30.7417 40.1667C28.9583 43.1717 26.06 42.3034 24.9167 41.8017C24.7367 40.53 24.2217 39.665 23.65 39.1734C28.0917 38.6817 32.76 36.9917 32.76 29.4617C32.76 27.3167 31.985 25.5634 30.7017 24.1884C30.9267 23.6917 31.6017 21.6934 30.5267 18.9867C30.5267 18.9867 28.8517 18.46 25.0267 21.0017C23.4267 20.565 21.7267 20.3484 20.0267 20.3384C18.3267 20.3484 16.6267 20.565 15.0267 21.0017C11.2267 18.46 9.55168 18.9867 9.55168 18.9867C8.47668 21.6934 9.15168 23.6917 9.35168 24.1884C8.07668 25.5634 7.30168 27.3167 7.30168 29.4617C7.30168 37.0117 11.9767 38.6734 16.4267 39.1567C15.7267 39.7467 15.0767 40.9517 15.0767 42.7934C15.0767 45.4234 15.1017 47.5367 15.1017 48.175C15.1017 48.69 14.7517 49.305 13.7267 49.1084C5.72501 46.5284 1.52588e-05 39.1584 1.52588e-05 30.4867C1.52588e-05 19.6334 8.95501 10.8334 20 10.8334Z" fill="#B3B9FF"/>
</g>
<defs>
<clipPath id="clip0">
<rect width="40" height="40" fill="white" transform="matrix(-1 0 0 1 40 10)"/>
</clipPath>
</defs>
</svg>
